<svg width="1008" height="1024" viewBox="0 0 1008 1024" fill="none" xmlns="http://www.w3.org/2000/svg">
<g clip-path="url(#clip0_52_2097)">
<path d="M449.109 172.151C451.302 172.161 453.495 172.156 455.687 172.146C466.167 172.104 476.365 172.609 486.776 173.88C489.464 174.167 492.151 174.339 494.844 174.495C496.849 174.672 498.729 175.062 500.677 175.557C501.984 175.844 503.234 175.828 504.568 175.786L505.135 176.354C506.146 176.495 507.156 176.63 508.167 176.755C515.687 177.687 522.969 179.552 530.302 181.396L531.661 181.74C532.505 181.948 533.349 182.167 534.193 182.38C536.635 182.995 539.052 183.406 541.542 183.75C542.495 184.12 543.443 184.5 544.385 184.891C545.5 185.182 546.609 185.464 547.729 185.74C558.234 188.312 568.349 192.156 578.411 196.089L580.349 196.844C584.193 198.37 587.953 200.016 591.687 201.781C593.714 202.708 595.76 203.49 597.859 204.229V205.37L598.776 205.562C600.484 206.036 602.057 206.703 603.693 207.396L605.547 208.182L606.964 208.781V209.922C607.411 210.052 607.865 210.182 608.328 210.318C610.948 211.266 613.349 212.5 615.812 213.797L617.391 214.625C623.182 217.714 628.745 221.161 634.266 224.714L636.073 225.87C638.844 227.693 641.557 229.583 644.271 231.484L646.031 232.708C647.198 233.526 648.359 234.344 649.521 235.161C652.87 237.516 652.87 237.516 656.385 239.599C658.266 240.703 659.469 241.938 661 243.484C663.193 245.161 665.474 246.714 667.74 248.292L669.099 249.25L670.344 250.115L671.24 250.88V252.016L672.172 252.443C673.818 253.312 675.276 254.344 676.786 255.432L678.484 256.641L679.771 257.708V258.844L680.729 259.271C685.135 261.651 688.865 265.578 692.542 268.932C694.573 270.734 696.682 272.432 698.807 274.125C700.328 275.406 701.708 276.766 703.094 278.188L704.479 279.547C707.026 282.068 709.474 284.615 711.797 287.333C712.812 288.474 713.875 289.531 714.969 290.594C717.245 292.833 719.214 295.271 721.208 297.755C722.542 299.365 723.964 300.818 725.464 302.271C728.354 305.141 730.875 308.328 733.354 311.557C735.568 314.427 737.839 317.26 740.161 320.047C746.568 327.745 752.026 336.13 757.562 344.464L758.63 346.068C760.984 349.604 763.328 353.146 765.667 356.693L766.401 357.802C777.26 374.276 787.604 392.068 794.724 410.521C795.333 412.099 795.984 413.656 796.635 415.219L797.365 416.969C797.828 418.073 798.297 419.172 798.766 420.276C802.844 429.865 806.13 439.74 809.255 449.672L809.849 451.552C820.026 484.068 827.927 518.016 829.833 552.13C829.917 553.5 830 554.865 830.089 556.234C830.458 561.885 830.609 567.516 830.615 573.177L830.62 575.802C830.62 577.625 830.625 579.448 830.625 581.271C830.625 583.099 830.625 584.927 830.635 586.755C830.703 603.057 830.068 619.151 827.911 635.333C827.667 637.24 827.437 639.146 827.219 641.052C824.474 664.026 818.833 686.667 812.312 708.833L811.745 710.781C806.865 727.307 800.604 743.203 793.542 758.896L793.047 760C786.089 775.448 777.995 790.016 769.083 804.411L768.115 805.979C759.958 819.12 751.417 832.12 741.776 844.229L741.068 845.146C739.297 847.37 737.849 848.495 735.245 849.526C732.641 850.245 730.224 850.297 727.557 849.922C724.339 849.021 721.417 847.76 719.026 845.37V844.229H717.885C716.089 840.797 715.401 838.188 715.453 834.323C715.76 831.458 717.115 829.37 718.776 827.068C719.365 826.286 719.964 825.516 720.578 824.755C721.411 823.703 721.411 823.703 721.87 822.047L722.828 821.109C724.703 819.198 726.099 817.016 727.594 814.792L729.568 811.87L730.568 810.391C731.474 809.057 732.391 807.729 733.312 806.406C735.964 802.604 738.505 798.859 740.641 794.74H741.776L742.193 793.568C743.068 791.542 744.177 789.714 745.333 787.839C747.12 784.901 748.844 781.948 750.474 778.911C751.521 776.969 752.583 775.036 753.656 773.104C754.479 771.604 755.302 770.104 756.125 768.604C757.052 766.906 757.99 765.219 758.948 763.542C765.13 752.516 769.719 740.453 774.344 728.708L774.943 727.198C776.187 723.969 777.234 720.698 778.182 717.37H779.323L779.516 716.427C780.187 713.266 781.031 710.203 782.021 707.13L782.469 705.724C783.615 702.156 784.839 698.62 786.146 695.109C786.995 692.781 787.594 690.479 788.099 688.057C788.458 686.505 788.896 685 789.349 683.474C794.87 664.661 798.172 644.672 799.635 625.13C799.755 623.51 799.885 621.896 800.026 620.276C803.792 576.224 800.953 532.036 790.557 489.031L790.271 487.839C789.297 483.839 788.245 479.979 786.719 476.161C785.458 472.411 784.24 468.734 783.87 464.781H782.734C782.557 464.151 782.375 463.516 782.193 462.865C781.026 458.797 779.854 454.792 778.198 450.891C777.458 449.026 776.844 447.13 776.229 445.224C775.182 442.026 773.995 438.88 772.661 435.792C771.891 433.974 771.182 432.135 770.469 430.292C764.578 415.344 757.156 400.938 748.984 387.125L748.167 385.724L747.427 384.469C746.896 383.432 746.896 383.432 746.896 382.292H745.76C744.516 379.865 743.307 377.458 742.344 374.896H741.208V373.193H740.073L739.526 372.104C737.49 368.198 735.109 364.656 732.521 361.115C730.583 358.453 728.74 355.729 726.896 353C725.703 351.245 724.49 349.573 723.104 347.964L721.87 346.453V345.318H720.729C719.865 344.177 719.036 343.016 718.24 341.833C715.417 337.755 712.281 334.047 709.021 330.318C707.802 328.911 706.641 327.458 705.479 326.01C703.797 323.932 701.995 321.964 700.073 320.104C699.01 319.047 698.031 317.938 697.052 316.802C694.625 313.99 691.969 311.422 689.078 309.094L688.307 308.339V307.198H687.167C686.344 306.344 686.344 306.344 685.391 305.172C683.625 303.094 681.75 301.328 679.677 299.562C678.307 298.385 677.052 297.115 675.792 295.823C673.062 293.042 670.318 290.328 667.354 287.792C665.865 286.5 664.432 285.151 662.995 283.802C660.859 281.854 658.781 280.24 656.286 278.802C654.807 277.865 653.687 276.594 652.469 275.344L650.87 274.38L649.625 273.635V272.5L648.557 271.964L646.214 270.792V269.651L645.036 269.297C642.844 268.271 641.047 266.865 639.385 265.104V263.964L638.021 263.63C635.198 262.526 632.922 260.844 630.464 259.094C629.5 258.417 628.536 257.74 627.573 257.062L626.297 256.156C625.125 255.339 625.125 255.339 623.458 254.865V253.724L622.224 253.25C620.635 252.599 619.12 251.87 617.589 251.094L614.927 249.745V248.604L613.703 248.141C612.031 247.448 610.479 246.641 608.885 245.771L607.036 244.766L605.078 243.698C599.891 240.88 594.682 238.135 589.38 235.542C588.021 234.865 586.667 234.182 585.318 233.484C576.005 228.745 566.526 224.391 556.729 220.734C555.271 220.182 553.828 219.615 552.385 219.021C551.427 218.641 550.469 218.26 549.505 217.885L547.927 217.25C526.557 209.13 502.906 205.979 480.323 203.557L478.969 203.411C457.177 201.073 436.047 202.901 414.339 205.224C413.464 205.318 412.589 205.411 411.714 205.505C388.589 207.943 365.885 212.917 344.156 221.297L342.589 221.896C337.396 223.87 332.339 225.979 327.406 228.536C323.714 230.438 319.911 232.078 316.104 233.745C306.021 238.177 296.578 243.302 287.271 249.172L285.599 250.219C275.51 256.552 265.641 263.062 256.552 270.792L254.75 272.318C253.802 273.115 252.859 273.917 251.911 274.724C249.927 276.406 247.917 278.057 245.885 279.682C243.422 281.682 241.187 283.823 238.974 286.094C237.901 287.167 236.802 288.156 235.646 289.135C231.089 293.057 226.833 297.411 222.948 302C221.443 303.672 219.833 305.229 218.224 306.807C215.484 309.51 212.922 312.37 210.531 315.391C209.354 316.849 208.12 318.229 206.849 319.609C204.823 321.839 202.917 324.141 201.052 326.505L200.328 327.432C190.182 340.458 180.937 354.51 174.552 369.776C173.901 371.312 173.208 372.833 172.521 374.354C171.505 376.615 170.505 378.885 169.521 381.156L168.724 382.974C164.453 392.802 160.854 402.625 158.141 413.016L157.62 414.995C149.635 445.875 147.943 476.932 151.318 508.589L151.453 509.885C154.375 536.828 160.698 564.714 173.458 588.766C174.13 590.062 174.792 591.359 175.443 592.667C180.469 602.599 186.078 612.385 193.073 621.073C194.255 622.536 195.365 624.047 196.464 625.578C199.698 630.073 202.823 634.292 206.87 638.089C208.365 639.599 209.573 641.203 210.833 642.917C215.276 648.938 220.839 654.109 226.49 658.995C227.922 660.24 229.312 661.536 230.703 662.828C232.422 664.401 234.109 665.891 236.036 667.198C237.781 668.443 237.781 668.443 238.88 669.833C246.755 679.615 262.115 686.51 272.979 692.552L274.052 693.151C277.771 695.229 281.464 697.172 285.453 698.677C287.339 699.411 289.099 700.333 290.896 701.26C293.807 702.802 293.807 702.802 296.943 703.714V704.854L298.245 705.005C301.177 705.589 303.932 706.583 306.755 707.557C315.312 710.448 323.786 712.781 332.635 714.63L334.698 715.063C355.349 719.266 376.448 718.745 397.198 715.448L399.349 715.109C404.38 714.266 409.214 713.047 414.125 711.682C414.953 711.464 415.786 711.25 416.625 711.042C420.156 710.135 423.51 709.13 426.865 707.698C428.682 707 430.521 706.5 432.396 705.99C434.979 705.276 437.224 704.49 439.568 703.208C440.948 702.531 442.359 702.01 443.807 701.49C456.651 696.896 468.677 690.339 479.542 682.099C480.969 681.047 482.401 680.005 483.844 678.969L484.891 678.198C485.75 677.583 486.62 676.99 487.505 676.411H488.641V675.271C490.328 674.036 491.776 673.089 493.76 672.427V671.286C494.745 670.422 494.745 670.422 496.141 669.37C505.109 662.349 512.573 654.177 519.375 645.083C520.698 643.318 522.068 641.615 523.484 639.927C526.078 636.724 528.094 633.177 530.156 629.62C530.958 628.245 531.792 626.885 532.62 625.526C533.766 623.62 534.792 621.688 535.755 619.682C536.536 618.167 537.411 616.724 538.292 615.26C540.328 611.781 541.99 608.234 543.536 604.516L544.344 602.578C553.714 579.781 557.771 553.51 554.656 528.958C554.469 527.661 554.271 526.375 554.057 525.083L553.797 523.411C551.052 506.089 546.021 489.276 537.385 473.932C535.854 471.198 535.854 471.198 535.854 469.333H534.719L534.234 468.432C530.432 461.453 525.901 455.141 521.068 448.854L519.854 447.266C514.974 441.01 509.687 435.531 503.432 430.651C502.437 429.807 501.437 428.969 500.443 428.125C497.562 425.745 494.51 423.698 491.359 421.703C490.432 421.109 489.536 420.479 488.641 419.839V418.703L487.745 418.562C485.818 417.964 484.224 416.891 482.526 415.823C478.396 413.292 474.177 411.047 469.802 408.969C468.828 408.505 467.854 408.036 466.885 407.562C456.224 402.635 444.464 400.365 432.896 398.792L431.714 398.615C419.708 397.01 406.479 397.479 394.781 400.5L393.292 400.87C372.151 406.177 353.526 416.661 337.573 431.438C334.37 434.552 331.552 437.943 328.797 441.458L327.516 443.052C323.995 447.562 321.187 452.323 318.557 457.385L317.953 458.547C309.469 475.115 305.766 493.448 306.609 512C307.839 527.531 313.583 542.75 321.969 555.802C323.385 557.802 324.901 559.661 326.521 561.495L327.844 563.021C330.359 565.891 330.359 565.891 333.214 568.411L334.484 569.458V570.594C334.781 570.724 335.078 570.859 335.385 570.995C337.224 571.984 338.854 573.229 340.526 574.469C343.672 576.766 346.833 578.698 350.411 580.266V581.406L351.911 581.875C353.75 582.516 355.422 583.281 357.167 584.141C360.016 585.474 362.943 586.615 365.948 587.557L367.062 587.911C369.24 588.573 371.359 588.974 373.625 589.214C375.047 589.391 376.427 589.672 377.833 589.958C389.406 592.094 401.323 590.458 412.38 586.745C420.536 583.833 427.479 579.703 434.031 574.01L435.083 573.208C441.255 568.438 446.177 560.724 449.193 553.656C451.245 548.594 452.521 543.568 453.375 538.167L453.599 536.797C454.885 527.5 453.969 517.745 450.802 508.932C448.75 503.932 446.214 499.469 442.729 495.333L441.995 494.365V493.229H440.859C440.302 492.594 439.771 491.943 439.26 491.271C435.094 486.385 429.203 482.911 423.224 480.714L421.458 480.036C414.062 477.63 405.198 477.333 397.568 478.812C395.781 479.312 394.182 479.922 392.505 480.714L390.687 481.547C384.557 484.62 379.375 488.766 374.448 493.474C372.302 495.448 370.505 496.917 367.656 497.625C364.505 497.99 361.63 497.786 358.646 496.672C356.521 495.604 354.797 494.406 353.292 492.552C351.766 490.094 351.146 487.568 350.979 484.693C351.182 481.109 352.036 477.807 353.885 474.719C356.135 471.786 358.849 469.255 361.531 466.714C362.115 466.151 362.687 465.583 363.255 465.005C364.385 463.896 365.677 463.276 367.068 462.542C368.073 461.974 368.073 461.974 368.844 461.115C370.833 459.177 373.573 458.099 376.01 456.818C376.437 456.578 376.865 456.333 377.307 456.083C387.891 450.318 400.224 448.406 412.125 448.698C424.115 449.193 434.635 453.927 444.964 459.708C446.062 460.307 446.062 460.307 447.682 460.802V461.938L448.937 462.375C451.729 463.604 453.896 465.682 456.219 467.625L457.417 468.589C467.38 476.839 474.729 490.062 479.219 502.047C482.37 510.807 483.057 518.833 483.057 528.068C483.057 529.484 483.068 530.901 483.078 532.318C483.109 540.104 482.437 547.562 480.323 555.094L479.875 556.693C475.625 571.365 468.073 582.656 457.427 593.458L456 594.911C452.708 598.198 449.24 600.958 445.411 603.594L444.203 604.438C429.75 614.495 413.62 619.865 396.13 621.562C378.833 623 361.495 619.979 345.698 612.745C339.839 609.943 334.198 606.625 328.797 603.021V601.885L327.594 601.495C325.589 600.583 324.073 599.307 322.432 597.865L321.453 597.021C320.484 596.182 319.516 595.339 318.557 594.49L316.99 593.12C312.193 588.859 307.802 584.448 303.792 579.438C302.875 578.302 301.932 577.193 300.958 576.104C292.656 566.354 286.214 554.625 281.583 542.719L280.776 540.656C279.141 536.292 277.875 531.948 277.031 527.359L276.797 526.094C273.411 507.156 274.307 485.365 280.63 467.062C281.078 465.724 281.406 464.38 281.724 463.005C282.854 458.807 284.766 455 286.703 451.13L287.276 449.958C294.682 434.927 305.786 422.359 317.526 410.557L318.818 409.26C322.729 405.365 326.87 401.729 331.25 398.365C333.687 396.521 333.687 396.521 335.953 394.474C336.859 393.568 337.719 393.083 338.859 392.5C340.979 391.359 343.005 390.125 345.031 388.828C349.854 385.734 354.875 382.984 360.083 380.589L361.172 380.078C368.859 376.562 376.979 374.286 385.109 372.052L387.036 371.521L388.885 371.031L390.542 370.589C391.937 370.349 391.937 370.349 393.646 370.917V369.776L394.958 369.812C396.547 369.849 396.547 369.849 398.193 369.208C403.068 368.583 407.964 368.557 412.87 368.562H415.062C416.583 368.562 418.104 368.562 419.625 368.568C421.562 368.568 423.5 368.568 425.437 368.562C427.302 368.562 429.172 368.562 431.036 368.562H433.125C436.521 368.573 439.781 368.698 443.135 369.208C444.083 369.318 445.031 369.427 445.979 369.526L448.255 369.776V370.917C448.562 370.807 448.875 370.698 449.193 370.589C450.896 370.281 452.021 370.604 453.687 371.062L455.568 371.573L457.531 372.125L459.422 372.635C467.682 374.906 475.323 377.656 482.99 381.438L484.214 382.042C493.714 386.688 503.031 391.703 511.396 398.224C512.318 398.927 513.24 399.63 514.167 400.328C515.042 400.995 515.911 401.656 516.781 402.328C518.187 403.422 518.187 403.422 519.927 403.911C520.896 404.839 521.839 405.792 522.771 406.755C523.573 407.495 524.38 408.234 525.187 408.969C532.036 415.188 538.766 421.578 544.391 428.943L545.594 430.464C556.036 443.922 564.797 459.698 571.182 475.479C571.557 476.391 571.932 477.297 572.312 478.208C575.51 485.896 578.104 493.609 580.224 501.651L580.552 502.88C581.896 507.969 582.943 513.036 583.641 518.255L583.875 519.911C588.51 552.573 583.573 584.474 571.365 615.026C564.547 631.932 555.776 647.708 543.734 661.453C542.344 663.047 541.01 664.688 539.693 666.349C532.812 674.818 524.901 683.057 516.516 690.063L514.937 691.385C513.193 692.849 511.443 694.302 509.687 695.75L508.219 696.974C506.63 698.281 505.036 699.583 503.432 700.87L502.318 701.771C496.63 706.328 490.839 710.568 484.635 714.401C483.62 715.036 482.604 715.682 481.599 716.339C457.849 731.313 430.083 740.708 402.37 744.495C400.859 744.698 399.354 744.917 397.844 745.135C396.74 745.292 395.635 745.443 394.531 745.599L393.021 745.813C391.526 746.016 390.026 746.203 388.526 746.38L387.078 746.552C381.62 747.104 376.141 747.057 370.661 747.057C368.958 747.057 367.255 747.068 365.547 747.078C358.635 747.099 351.849 746.75 344.979 745.974C343.635 745.818 342.292 745.677 340.948 745.536C313.943 742.661 288.573 734.964 264.734 721.823C262.927 720.844 261.099 719.927 259.25 719.026C256.016 717.443 252.922 715.849 249.979 713.771C248.865 713.01 247.729 712.281 246.578 711.583C232.828 703.224 219.844 692.641 208.484 681.245C207.542 680.302 206.594 679.365 205.651 678.427C203.635 676.432 201.625 674.438 199.615 672.438C198.755 671.578 197.891 670.724 197.026 669.87C195.766 668.625 194.51 667.375 193.255 666.125L192.099 664.984C189.75 662.635 187.682 660.188 185.703 657.516C184.937 656.432 184.937 656.432 183.74 655.927C182.672 654.281 181.75 652.578 180.896 650.807H179.76C178.911 649.802 178.911 649.802 177.875 648.318L176.656 646.599L175.964 645.62C175.125 644.438 174.276 643.266 173.422 642.094C169.927 637.292 166.484 632.474 163.26 627.484L162.354 626.099C161.687 625.052 161.042 624 160.417 622.932V621.797H159.281L158.318 619.839C157.464 618.125 156.562 616.427 155.62 614.755C151.318 607.073 151.318 607.073 151.318 605.297H150.177L149.505 603.724C147.818 599.807 146.078 595.927 144.198 592.094C138.031 579.469 133.464 566.292 129.13 552.953C128.661 551.542 128.156 550.146 127.62 548.755C125.208 542.281 124.036 535.292 122.875 528.5L122.651 527.229C117.604 497.823 116.469 463.766 122.562 434.536C123.13 431.76 123.641 428.974 124.094 426.177L124.443 424.078C124.677 422.656 124.906 421.24 125.13 419.818C125.911 415.125 127.073 410.703 128.562 406.188C128.906 405.052 129.25 403.911 129.594 402.771C130.005 401.443 130.422 400.12 130.839 398.792L131.224 397.557C136.906 379.63 144.156 362.635 153.964 346.583C154.604 345.516 155.224 344.443 155.833 343.359C157.437 340.526 159.224 337.812 160.984 335.078L162.031 333.448C163.094 331.807 164.151 330.172 165.219 328.531L166.281 326.885C168.755 323.078 171.365 319.385 174.068 315.734L175.469 313.833L177.672 310.849C178.479 309.693 179.172 308.479 179.76 307.198H180.896L181.359 306.229C182.078 304.833 182.88 303.536 183.74 302.224L184.63 300.844C184.901 300.5 185.167 300.156 185.448 299.802H186.583L187.047 298.844C188.521 295.969 190.307 293.536 192.417 291.094L193.266 290.099C193.828 289.448 194.385 288.797 194.948 288.146C195.531 287.464 196.12 286.781 196.703 286.094C204.974 276.469 213.854 266.589 223.885 258.802C225.427 257.578 226.849 256.271 228.286 254.932C232.349 251.193 236.724 247.87 241.109 244.521L242.51 243.448L243.714 242.542C244.682 241.818 244.682 241.818 245.177 240.641C247.083 239.474 248.745 238.5 250.865 237.797V236.656C252.021 235.833 253.208 235.052 254.417 234.312C255.161 233.844 255.901 233.38 256.646 232.911L257.771 232.208C259.219 231.292 260.641 230.328 262.062 229.37C265.505 227.062 269.005 224.854 272.516 222.656C274.755 221.255 276.974 219.818 279.167 218.339C280.917 217.167 282.656 216.12 284.568 215.219C285.964 214.557 287.297 213.885 288.62 213.089C307.615 201.698 330.01 194.042 350.979 187.167L353.052 186.479L355 185.849L356.724 185.286C358.469 184.865 360 184.818 361.786 184.891V183.75L364 183.333L366.979 182.755L368.422 182.484C371.281 181.922 374.099 181.219 376.885 180.37C381.693 178.964 386.568 178.198 391.51 177.422C392.854 177.208 394.203 176.99 395.547 176.776C396.411 176.635 397.271 176.495 398.135 176.359C400.333 176.005 402.516 175.615 404.693 175.151C406.495 174.776 408.255 174.536 410.094 174.385C412.5 174.182 414.901 173.932 417.302 173.656C427.927 172.479 438.427 172.104 449.109 172.151Z" fill="#FEFEFE"/>
</g>
<defs>
<clipPath id="clip0_52_2097">
<rect width="1008" height="1024" fill="white"/>
</clipPath>
</defs>
</svg>
